:SAMPLES-PER-SECOND 24
:FULLY-SPECIFIED
:DEGREES
166
root  -0.548732 37.5748 26.3132 176.967 -9.82233 177.428
RightUpLeg  -24.5425 -11.779 -10.7611
RightLeg  1.85403 -13.8971 7.12431
RightFoot  -2.33848 -1.21534 15.0685
RightToes  -1.46203e-006 3.27826e-006 1.63871e-007
Spine  0.0583051 -2.10747 -9.07358
Spine1  17.4734 -3.48608 3.60043
HEad  2.91929 3.28287 2.69569
LeftShoulder1  1.33141 -3.08384 -13.2032
LeftArm  0.408394 -41.4124 -51.4351
LeftForeArm  34.6426 -74.1214 -40.0479
LeftHand  -0.178471 4.43402 20.8877
RightShoulder  1.24979 2.35959 14.5067
RightArm  -34.1551 53.838 27.3041
RightForeArm  82.4691 79.816 66.8313
RightHand  -0.720456 -1.71623 -22.5741
LeftUpLeg  22.3137 7.25696 3.85133
LeftLeg  11.7334 17.9353 -0.0757788
LeftFoot  -19.6423 -1.13561 -17.0944
LeftToes  1.24767e-006 1.47042e-008 1.32732e-009
167
root  -0.36943 37.3068 24.7373 176.303 -5.91153 177.61
RightUpLeg  -24.9603 -13.6867 -6.21462
RightLeg  5.12627 -11.3158 6.58259
RightFoot  -1.04032 -0.889389 9.76557
RightToes  -1.46203e-006 3.27826e-006 1.63871e-007
Spine  -1.27694 -3.65236 -10.5239
Spine1  16.7506 -5.62525 5.44083
HEad  6.64056 9.03909 0.620237
LeftShoulder1  1.16021 -3.02318 -10.5122
LeftArm  -5.15974 -50.293 -54.2157
LeftForeArm  36.158 -74.3151 -40.4199
LeftHand  -0.450229 2.91728 20.9096
RightShoulder  1.29078 2.37373 15.2183
RightArm  -28.2089 49.8497 30.7533
RightForeArm  115.857 80.4652 100.432
RightHand  -0.573433 -1.86548 -18.7096
LeftUpLeg  25.5842 7.95079 4.2589
LeftLeg  12.3127 19.0484 0.601396
LeftFoot  -17.8056 -1.06309 -20.5063
LeftToes  1.24767e-006 1.47042e-008 1.32732e-009
168
root  -0.0106426 37.4081 22.7545 174.733 -1.91415 178.593
RightUpLeg  -24.3112 -14.1877 -0.678124
RightLeg  9.70426 -2.81614 4.28543
RightFoot  3.92778 -0.418792 3.26971
RightToes  -1.46203e-006 3.27826e-006 1.63871e-007
Spine  -0.863678 -5.66597 -12.0176
Spine1  13.8649 -8.9205 9.58347
HEad  10.7248 17.1447 -3.13771
LeftShoulder1  0.987232 -2.87698 -7.93882
LeftArm  -11.7077 -52.1566 -53.0911
LeftForeArm  40.0088 -75.2738 -43.6338
LeftHand  -0.770862 1.29874 21.7493
RightShoulder  1.40798 2.57945 16.5167
RightArm  -20.7065 46.6724 33.2806
RightForeArm  132.284 79.1916 119.177
RightHand  -0.506832 -1.85301 -16.4954
LeftUpLeg  27.8945 17.233 11.7229
LeftLeg  19.5677 10.3193 2.92755
LeftFoot  -12.0128 -0.0549836 -24.8223
LeftToes  1.24767e-006 1.47042e-008 1.32732e-009
169
root  0.392862 37.4613 20.736 172.245 2.84438 178.634
RightUpLeg  -23.3702 -16.9273 3.64824
RightLeg  15.99 6.84198 2.96817
RightFoot  7.32554 -0.32421 2.23493
RightToes  -1.46203e-006 3.27826e-006 1.63871e-007
Spine  0.09237 -7.92132 -11.5386
Spine1  11.9007 -11.3695 10.5184
HEad  12.6046 26.6046 -6.6324
LeftShoulder1  0.91325 -2.5972 -7.38835
LeftArm  -19.7518 -49.8866 -44.0339
LeftForeArm  34.6184 -74.0339 -39.7619
LeftHand  -0.946608 0.898856 24.3283
RightShoulder  1.4836 2.77405 17.0483
RightArm  -13.4829 44.9836 37.3442
RightForeArm  132.729 79.0742 120.023
RightHand  -0.645157 -1.07652 -17.2444
LeftUpLeg  25.6132 19.0041 13.5806
LeftLeg  33.9038 12.2611 9.57119
LeftFoot  3.68099 2.48006 -20.1258
LeftToes  1.24767e-006 1.47042e-008 1.32732e-009
170
root  0.693705 37.2189 19.0645 168.782 9.90556 177.158
RightUpLeg  -21.7772 -15.671 3.72438
RightLeg  23.929 11.2733 5.15111
RightFoot  7.74273 -0.375038 2.55716
RightToes  -1.46203e-006 3.27826e-006 1.63871e-007
Spine  0.523347 -8.71016 -7.68953
Spine1  12.5937 -10.6735 6.30033
HEad  12.5819 33.6874 -9.16807
LeftShoulder1  1.04131 -2.85414 -8.96014
LeftArm  -26.5676 -44.9833 -32.8156
LeftForeArm  24.0286 -70.81 -32.3156
LeftHand  -0.951358 1.34096 27.0447
RightShoulder  1.59101 3.05413 17.7292
RightArm  -7.91929 45.4255 41.1476
RightForeArm  120.342 80.0126 108.008
RightHand  -0.7496 -0.589836 -18.0758
LeftUpLeg  19.5261 19.2545 11.7598
LeftLeg  50.1881 8.7799 11.6013
LeftFoot  21.2321 2.96455 -10.7117
LeftToes  1.24767e-006 1.47042e-008 1.32732e-009
171
root  0.935856 36.9469 17.6696 164.551 19.0216 174.554
RightUpLeg  -19.5425 -10.6358 2.83902
RightLeg  31.157 14.219 8.8891
RightFoot  6.99763 0.287689 -1.48395
RightToes  -1.46203e-006 3.27826e-006 1.63871e-007
Spine  -0.0567312 -7.83929 -2.3475
Spine1  15.5934 -7.475 0.184723
HEad  12.1929 38.8004 -11.8568
LeftShoulder1  1.35073 -3.4752 -12.2638
LeftArm  -31.2755 -36.9303 -23.1009
LeftForeArm  17.8868 -69.0199 -29.4848
LeftHand  -0.939314 1.64067 28.7668
RightShoulder  1.77008 3.58329 18.5015
RightArm  -0.517777 49.2772 47.1039
RightForeArm  92.8779 80.3525 79.9921
RightHand  -0.781664 -0.165774 -17.3556
LeftUpLeg  11.4054 23.4505 11.3045
LeftLeg  67.877 0.839017 3.06617
LeftFoot  25.7635 3.52142 -10.9523
LeftToes  1.24767e-006 1.47042e-008 1.32732e-009
172
root  1.18901 37.0511 16.416 159.115 28.6133 169.597
RightUpLeg  -16.3201 -3.75717 1.21182
RightLeg  35.2829 16.1472 11.7097
RightFoot  6.30517 1.13704 -7.01894
RightToes  -1.46203e-006 3.27826e-006 1.63871e-007
Spine  -0.470734 -6.0849 1.84495
Spine1  17.9672 -3.36955 -6.08964
HEad  12.1567 43.5836 -14.1484
LeftShoulder1  1.72681 -3.81746 -16.9092
LeftArm  -33.4534 -24.3588 -14.9656
LeftForeArm  18.7625 -70.7533 -33.1805
LeftHand  -0.933226 1.81217 29.9172
RightShoulder  1.9633 4.23477 18.9236
RightArm  13.5682 53.4756 60.3023
RightForeArm  67.6755 78.2369 52.7405
RightHand  -0.916925 1.14106 -16.3774
LeftUpLeg  1.52629 28.6173 10.7806
LeftLeg  84.0066 -0.717519 -4.99489
LeftFoot  24.4372 4.39 -14.0143
LeftToes  1.24767e-006 1.47042e-008 1.32732e-009
173
root  1.34063 37.2653 15.4236 150.245 37.4101 159.989
RightUpLeg  -13.4841 3.21578 -2.63598
RightLeg  38.6316 17.0775 13.907
RightFoot  5.4161 1.77919 -11.768
RightToes  -1.46203e-006 3.27826e-006 1.63871e-007
Spine  1.45497 -3.5008 4.13966
Spine1  18.076 1.97598 -13.5133
HEad  11.4004 46.5125 -15.0431
LeftShoulder1  2.04371 -3.89933 -21.2336
LeftArm  -33.6119 -9.40279 -9.11996
LeftForeArm  24.2547 -73.6934 -41.1576
LeftHand  -0.861634 2.1418 30.4086
RightShoulder  2.13225 4.82052 19.184
RightArm  31.3226 54.7035 78.3653
RightForeArm  55.652 75.4392 39.3375
RightHand  -1.12053 3.1359 -15.4265
LeftUpLeg  -10.5588 31.9181 8.75689
LeftLeg  95.7456 0.903878 -8.66557
LeftFoot  27.7632 6.44006 -18.4594
LeftToes  1.24767e-006 1.47042e-008 1.32732e-009
174
root  1.29118 37.0814 14.4655 137.885 43.0466 147.486
RightUpLeg  -12.1371 9.09458 -7.73582
RightLeg  44.185 16.4444 16.1736
RightFoot  2.26362 1.9469 -16.1119
RightToes  -1.46203e-006 3.27826e-006 1.63871e-007
Spine  5.41096 -0.858573 6.2385
Spine1  17.6558 8.1868 -21.6752
HEad  9.70561 45.9308 -15.0347
LeftShoulder1  2.17632 -3.88306 -23.1996
LeftArm  -32.9548 4.29721 -7.75167
LeftForeArm  28.122 -75.2167 -47.3189
LeftHand  -0.825433 2.24206 30.074
RightShoulder  2.16152 5.10388 18.6405
RightArm  46.253 54.3612 94.3297
RightForeArm  50.0456 73.247 33.0656
RightHand  -1.26341 4.69253 -14.7562
LeftUpLeg  -22.9521 31.7621 8.90708
LeftLeg  106.526 4.46329 -13.6821
LeftFoot  34.8276 8.55396 -20.4304
LeftToes  1.24767e-006 1.47042e-008 1.32732e-009
175
root  1.22242 36.964 13.4968 126.783 42.6299 136.386
RightUpLeg  -10.8615 13.0095 -14.8586
RightLeg  48.1532 15.2633 17.2157
RightFoot  -2.11647 1.44847 -17.9551
RightToes  -1.46203e-006 3.27826e-006 1.63871e-007
Spine  8.3546 1.396 5.72367
Spine1  17.6863 12.7912 -27.7341
HEad  9.9403 42.5426 -14.3305
LeftShoulder1  2.26922 -3.82054 -24.7959
LeftArm  -31.1695 15.2695 -9.24851
LeftForeArm  27.9809 -75.541 -49.346
LeftHand  -0.783769 2.32463 29.346
RightShoulder  2.02113 5.00982 17.148
RightArm  56.1119 53.7862 104.211
RightForeArm  48.5264 72.1504 30.4669
RightHand  -1.36484 5.61195 -14.6311
LeftUpLeg  -34.0265 23.5347 12.9074
LeftLeg  112.828 6.44864 -14.2733
LeftFoot  40.7646 9.65048 -20.1465
LeftToes  1.24767e-006 1.47042e-008 1.32732e-009
176
root  1.0765 36.8117 12.3871 121.436 38.8595 130.328
RightUpLeg  -10.9014 15.0344 -22.5159
RightLeg  51.4489 13.6615 17.3469
RightFoot  -6.76589 0.659586 -17.4827
RightToes  -1.46203e-006 3.27826e-006 1.63871e-007
Spine  9.45855 3.36652 4.5272
Spine1  17.9071 15.4428 -29.7789
HEad  12.2003 38.0636 -13.8376
LeftShoulder1  2.52455 -3.85008 -28.2604
LeftArm  -27.6162 22.9835 -9.90363
LeftForeArm  24.7285 -75.166 -48.1267
LeftHand  -0.746081 2.42566 28.9
RightShoulder  1.94798 4.95389 16.376
RightArm  59.9055 52.5593 107.233
RightForeArm  49.3702 72.2569 30.5455
RightHand  -1.37606 6.28175 -13.9394
LeftUpLeg  -44.3469 11.6144 23.5579
LeftLeg  105.724 3.36285 -11.689
LeftFoot  43.1866 9.69855 -19.2563
LeftToes  1.24767e-006 1.47042e-008 1.32732e-009
177
root  1.45223 36.7538 12.5736 119.164 34.4718 126.881
RightUpLeg  -10.2912 15.8413 -26.9492
RightLeg  51.2726 11.5966 14.7869
RightFoot  -8.09014 0.447545 -17.4852
RightToes  -1.46203e-006 3.27826e-006 1.63871e-007
Spine  10.8209 5.66494 0.606774
Spine1  18.6188 17.7763 -32.6268
HEad  14.1524 34.2805 -14.7832
LeftShoulder1  2.76827 -3.98018 -30.9758
LeftArm  -24.0234 27.5295 -10.9157
LeftForeArm  17.9757 -73.6986 -42.7757
LeftHand  -0.808449 2.14797 28.6412
RightShoulder  2.10771 5.21662 17.6073
RightArm  60.1934 50.3418 107.122
RightForeArm  47.5675 71.5772 29.3226
RightHand  -1.36408 6.76517 -13.298
LeftUpLeg  -48.46 7.12131 34.2233
LeftLeg  74.8406 -3.32366 -11.6867
LeftFoot  42.1973 9.28616 -18.856
LeftToes  1.24767e-006 1.47042e-008 1.32732e-009
178
root  1.85275 36.7348 13.0156 119.558 32.2172 127.073
RightUpLeg  -8.98559 14.3321 -27.417
RightLeg  49.9082 9.89697 12.0442
RightFoot  -8.40166 0.396137 -17.4583
RightToes  -1.46203e-006 3.27826e-006 1.63871e-007
Spine  12.3645 6.6828 0.410398
Spine1  19.209 19.1777 -34.743
HEad  15.3994 32.0826 -16.6013
LeftShoulder1  2.76155 -4.02991 -30.638
LeftArm  -23.0057 30.2061 -13.3968
LeftForeArm  13.6533 -72.1988 -38.1753
LeftHand  -0.855782 1.83946 27.7065
RightShoulder  2.29262 5.38896 19.3607
RightArm  59.9668 48.3425 105.981
RightForeArm  42.7464 69.2548 25.692
RightHand  -1.47071 7.24034 -13.7851
LeftUpLeg  -39.2486 9.89105 37.9076
LeftLeg  22.1875 -2.24379 -0.590915
LeftFoot  36.6314 7.60888 -17.5167
LeftToes  1.24767e-006 1.47042e-008 1.32732e-009
179
root  1.89978 36.8615 12.4316 119.907 32.0342 127.661
RightUpLeg  -7.8858 12.5709 -28.4387
RightLeg  49.5488 10.2869 12.3579
RightFoot  -9.7162 0.178227 -17.0112
RightToes  -1.46203e-006 3.27826e-006 1.63871e-007
Spine  13.3688 7.07179 3.30907
Spine1  18.7697 18.9798 -33.9332
HEad  14.3358 31.1426 -18.7426
LeftShoulder1  2.64096 -3.93744 -29.4538
LeftArm  -24.5347 29.9946 -13.0465
LeftForeArm  16.6541 -72.7621 -39.4298
LeftHand  -0.852155 1.70637 26.6204
RightShoulder  2.25682 5.24947 19.3632
RightArm  60.7577 49.0795 104.801
RightForeArm  39.6978 67.4238 23.3273
RightHand  -1.50418 7.40183 -13.9208
LeftUpLeg  -37.1652 23.6722 31.2144
LeftLeg  3.16171 -4.64065 -0.0732478
LeftFoot  34.651 6.45307 -15.6626
LeftToes  1.24767e-006 1.47042e-008 1.32732e-009
180
root  1.67798 36.8483 12.7999 119.581 31.795 127.752
RightUpLeg  -7.86327 12.8659 -28.1392
RightLeg  48.9597 9.98419 11.7511
RightFoot  -8.81231 0.319901 -16.9913
RightToes  -1.46203e-006 3.27826e-006 1.63871e-007
Spine  15.4754 6.7491 2.86968
Spine1  19.7436 19.1288 -32.334
HEad  10.0216 31.1124 -20.9562
LeftShoulder1  2.53042 -3.76654 -28.7528
LeftArm  -28.1497 24.4558 -8.22642
LeftForeArm  23.2245 -74.2451 -43.7581
LeftHand  -0.787338 1.88211 25.839
RightShoulder  2.17299 5.17266 18.566
RightArm  62.457 52.3966 105.856
RightForeArm  37.8625 66.1081 21.8685
RightHand  -1.4682 7.19875 -13.8092
LeftUpLeg  -44.9336 23.2533 29.9394
LeftLeg  36.5602 -4.19302 -3.16925
LeftFoot  35.4115 6.40231 -15.2691
LeftToes  1.24767e-006 1.47042e-008 1.32732e-009
